<svg width="23" height="21" viewBox="0 0 23 21" fill="none" xmlns="http://www.w3.org/2000/svg">
<path d="M13.9381 4.89278C14.9148 5.06 15.8125 5.47915 16.5161 6.0966C17.2198 6.71405 17.6975 7.50171 17.8881 8.35876L13.9381 4.89278ZM13.9381 1.38293C15.9674 1.58075 17.8597 2.37813 19.3043 3.64416C20.749 4.91019 21.6601 6.56962 21.8881 8.34998L13.9381 1.38293ZM20.8881 15.3521V17.9845C20.8892 18.2289 20.8321 18.4708 20.7206 18.6947C20.609 18.9186 20.4454 19.1196 20.2401 19.2848C20.0349 19.45 19.7926 19.5758 19.5288 19.6541C19.265 19.7324 18.9854 19.7614 18.7081 19.7394C15.6309 19.446 12.6751 18.5234 10.0781 17.0456C7.66193 15.6984 5.61344 13.901 4.07811 11.7809C2.38809 9.49174 1.33636 6.88549 1.00812 4.17326C0.983127 3.93062 1.01599 3.68606 1.10462 3.45517C1.19324 3.22428 1.33569 3.01211 1.52288 2.83217C1.71008 2.65223 1.93792 2.50846 2.1919 2.41002C2.44589 2.31158 2.72045 2.26063 2.99811 2.2604H5.9981C6.48341 2.25621 6.95389 2.407 7.32186 2.68468C7.68983 2.96235 7.93018 3.34796 7.9981 3.76963C8.12472 4.61205 8.35955 5.4392 8.6981 6.2353C8.83264 6.54936 8.86176 6.89069 8.782 7.21883C8.70225 7.54697 8.51696 7.84817 8.2481 8.08674L6.9781 9.20112C8.40165 11.3979 10.4745 13.2168 12.9781 14.4659L14.2481 13.3515C14.52 13.1156 14.8632 12.953 15.2372 12.883C15.6112 12.813 16.0002 12.8386 16.3581 12.9567C17.2653 13.2537 18.208 13.4598 19.1681 13.5709C19.6538 13.631 20.0975 13.8457 20.4146 14.1741C20.7317 14.5026 20.9002 14.9218 20.8881 15.3521Z" stroke="white" stroke-width="2" stroke-linecap="round" stroke-linejoin="round"/>
</svg>
