<svg width="33" height="33" viewBox="0 0 33 33" fill="none" xmlns="http://www.w3.org/2000/svg">
<path d="M20.2014 6.92504C21.651 7.20732 22.9832 7.91491 24.0275 8.95724C25.0719 9.99957 25.7808 11.3292 26.0636 12.776L20.2014 6.92504ZM20.2014 1C23.2131 1.33393 26.0214 2.68001 28.1654 4.81722C30.3095 6.95443 31.6616 9.75575 32 12.7612L20.2014 1ZM30.5159 24.5817V29.0255C30.5176 29.438 30.4329 29.8463 30.2673 30.2243C30.1017 30.6023 29.8589 30.9416 29.5543 31.2205C29.2498 31.4994 28.8902 31.7117 28.4986 31.8439C28.1071 31.976 27.6922 32.0251 27.2806 31.988C22.7138 31.4927 18.327 29.9352 14.4728 27.4405C10.887 25.1663 7.84681 22.1319 5.56823 18.5529C3.06007 14.6886 1.49919 10.289 1.01205 5.71041C0.974959 5.30079 1.02373 4.88795 1.15526 4.49818C1.28679 4.10841 1.49819 3.75024 1.77601 3.44648C2.05382 3.14272 2.39197 2.90003 2.76891 2.73385C3.14585 2.56767 3.55333 2.48165 3.9654 2.48126H8.41769C9.13793 2.47419 9.83618 2.72875 10.3823 3.1975C10.9284 3.66625 11.2851 4.3172 11.3859 5.02903C11.5738 6.45114 11.9223 7.84746 12.4248 9.19137C12.6244 9.72155 12.6676 10.2977 12.5493 10.8517C12.4309 11.4056 12.1559 11.9141 11.7569 12.3168L9.87211 14.198C11.9848 17.9064 15.0612 20.9769 18.7767 23.0856L20.6615 21.2044C21.065 20.8061 21.5744 20.5317 22.1294 20.4135C22.6844 20.2954 23.2617 20.3385 23.7929 20.5378C25.1394 21.0393 26.5384 21.3872 27.9633 21.5747C28.6842 21.6762 29.3426 22.0387 29.8132 22.5931C30.2839 23.1475 30.534 23.8552 30.5159 24.5817Z" stroke="black" stroke-width="2" stroke-linecap="round" stroke-linejoin="round"/>
</svg>
